<svg id="Layer_1" enable-background="new 0 0 480 480" height="512" viewBox="0 0 480 480" width="512" xmlns="http://www.w3.org/2000/svg"><path d="m480 218.5v83c0 4.418-3.582 8-8 8h-25.82c-10.31 30.09-29.83 55.95-55.18 74.18v30.82c0 17.64-14.35 32-32 32h-35c-17.65 0-32-14.36-32-32v-2h-83v2c0 17.64-14.35 32-32 32h-35c-17.65 0-32-14.36-32-32v-30.9c-37.39-27.67-59.64-69.12-61.9-115.1h-5.82c-13.86 0-25.14-11.28-25.14-25.14 0-5.064-4.14-9.18-9.213-9.14-2.807.022-5.522-1.277-6.83-3.762-3.221-6.116 1.123-12.238 6.903-12.238 13.874 0 25.163 11.303 25.14 25.183-.009 5.059 4.249 9.097 9.308 9.097h5.692c2.465-45.066 24.367-87.618 63.22-115.47 6.594-4.74 12.863-.608 13.565 4.781 1.92 14.741 6.796 28.831 14.261 41.486.799 1.355 2.239 2.202 3.812 2.202h181.999c1.495 0 2.934-.704 3.869-2.294 2.063-3.509 7.465-2.501 8.098 1.519 7.444 47.319 58.996 44.512 94.685 17.042 4.181-3.218 10.317-1.569 12.25 3.34.701 1.781 1.369 3.578 2.002 5.392h26.099c4.418.002 8 3.584 8 8.002zm-39.62-61.58c-.873-22.425-30.091-44.556-54.08-39.13-33.725 7.63-43.777 66.846-24.5 82.6 20.288 16.578 79.823-10.911 78.58-43.47zm-207.683-123.411c-66.645.91-111.554 69.596-85.078 131.108 1.271 2.953 4.159 4.883 7.374 4.883h158.014c3.212 0 6.101-1.926 7.372-4.877 27.079-62.901-20.46-132.032-87.682-131.114z"/></svg>